  0
SECTION
  2
HEADER
  9
$ACADVER
  1
AC1006
  0
ENDSEC
  0
SECTION
  2
TABLES
  0
TABLE
  2
LAYER
  0
LAYER
  2
CHEMINEMENTS
 70
    64
 62
    1
  6
CONTINUOUS
  0
LAYER
  2
POINTS
 70
    64
 62
    6
  6
CONTINUOUS
  0
LAYER
  2
STATIONS
 70
    64
 62
    7
  6
CONTINUOUS
  0
LAYER
  2
PROFONDEURS
 70
    64
 62
    2
  6
CONTINUOUS
  0
LAYER
  2
LARGEURS
 70
    64
 62
    4
  6
CONTINUOUS
  0
LAYER
  2
ECHELLE
 70
    64
 62
    7
  6
CONTINUOUS
  0
ENDTAB
  0
ENDSEC
  0
SECTION
  2
ENTITIES
  0
LINE
  8
CHEMINEMENTS
 10
    0.00
 20
    0.00
 30
    0.00
 11
    0.00
 21
    0.00
 31
    0.00
  0
CIRCLE
  8
POINTS
 10
    0.00
 20
    0.00
 30
    0.00
 40
    0.2
  0
LINE
  8
LARGEURS
 10
    0.00
 20
    -5.26
 30
    0.00
 11
    0.00
 21
    0.00
 31
    0.00
  0
TEXT
  8
STATIONS
 10
    0.00
 20
    0.00
 30
    0.00
 40
    0.4
 72
    2
  1
1.0
  0
TEXT
  8
PROFONDEURS
 10
    0.00
 20
    0.00
 30
    0.00
 40
    0.6
 72
    0
  1
+0
  0
LINE
  8
CHEMINEMENTS
 10
    0.00
 20
    0.00
 30
    0.00
 11
    0.00
 21
    0.00
 31
    0.00
  0
CIRCLE
  8
POINTS
 10
    0.00
 20
    0.00
 30
    0.00
 40
    0.2
  0
LINE
  8
LARGEURS
 10
    -1.88
 20
    -1.69
 30
    0.00
 11
    1.78
 21
    1.61
 31
    0.00
  0
TEXT
  8
STATIONS
 10
    0.00
 20
    0.00
 30
    0.00
 40
    0.4
 72
    2
  1
1.0
  0
LINE
  8
CHEMINEMENTS
 10
    0.00
 20
    0.00
 30
    0.00
 11
    -6.86
 21
    7.62
 31
    0.00
  0
CIRCLE
  8
POINTS
 10
    -6.86
 20
    7.62
 30
    0.00
 40
    0.2
  0
LINE
  8
LARGEURS
 10
    -7.96
 20
    5.95
 30
    0.00
 11
    -6.86
 21
    7.62
 31
    0.00
  0
TEXT
  8
STATIONS
 10
    -6.86
 20
    7.62
 30
    0.00
 40
    0.4
 72
    2
  1
1.1
  0
LINE
  8
CHEMINEMENTS
 10
    -6.86
 20
    7.62
 30
    0.00
 11
    -10.55
 21
    8.89
 31
    0.00
  0
CIRCLE
  8
POINTS
 10
    -10.55
 20
    8.89
 30
    0.00
 40
    0.2
  0
LINE
  8
LARGEURS
 10
    -10.36
 20
    8.43
 30
    0.00
 11
    -10.63
 21
    9.07
 31
    0.00
  0
TEXT
  8
STATIONS
 10
    -10.55
 20
    8.89
 30
    0.00
 40
    0.4
 72
    2
  1
2.1
  0
LINE
  8
CHEMINEMENTS
 10
    -10.55
 20
    8.89
 30
    0.00
 11
    -14.51
 21
    0.40
 31
    0.00
  0
CIRCLE
  8
POINTS
 10
    -14.51
 20
    0.40
 30
    0.00
 40
    0.2
  0
LINE
  8
LARGEURS
 10
    -14.51
 20
    0.40
 30
    0.00
 11
    -14.51
 21
    0.40
 31
    0.00
  0
TEXT
  8
STATIONS
 10
    -14.51
 20
    0.40
 30
    0.00
 40
    0.4
 72
    2
  1
2.2
  0
TEXT
  8
PROFONDEURS
 10
    -14.51
 20
    0.40
 30
    0.00
 40
    0.6
 72
    0
  1
-1
  0
LINE
  8
CHEMINEMENTS
 10
    -6.86
 20
    7.62
 30
    0.00
 11
    -11.29
 21
    15.61
 31
    0.00
  0
CIRCLE
  8
POINTS
 10
    -11.29
 20
    15.61
 30
    0.00
 40
    0.2
  0
LINE
  8
LARGEURS
 10
    -11.29
 20
    15.61
 30
    0.00
 11
    -10.28
 21
    16.70
 31
    0.00
  0
TEXT
  8
STATIONS
 10
    -11.29
 20
    15.61
 30
    0.00
 40
    0.4
 72
    2
  1
1.2
  0
LINE
  8
CHEMINEMENTS
 10
    -11.29
 20
    15.61
 30
    0.00
 11
    -16.90
 21
    18.23
 31
    0.00
  0
CIRCLE
  8
POINTS
 10
    -16.90
 20
    18.23
 30
    0.00
 40
    0.2
  0
LINE
  8
LARGEURS
 10
    -18.35
 20
    17.44
 30
    0.00
 11
    -16.90
 21
    18.23
 31
    0.00
  0
TEXT
  8
STATIONS
 10
    -16.90
 20
    18.23
 30
    0.00
 40
    0.4
 72
    2
  1
1.3
  0
LINE
  8
CHEMINEMENTS
 10
    -16.90
 20
    18.23
 30
    0.00
 11
    -15.95
 21
    24.96
 31
    0.00
  0
CIRCLE
  8
POINTS
 10
    -15.95
 20
    24.96
 30
    0.00
 40
    0.2
  0
LINE
  8
LARGEURS
 10
    -16.25
 20
    24.94
 30
    0.00
 11
    -14.65
 21
    25.08
 31
    0.00
  0
TEXT
  8
STATIONS
 10
    -15.95
 20
    24.96
 30
    0.00
 40
    0.4
 72
    2
  1
1.4
  0
LINE
  8
CHEMINEMENTS
 10
    -15.95
 20
    24.96
 30
    0.00
 11
    -17.90
 21
    30.96
 31
    0.00
  0
CIRCLE
  8
POINTS
 10
    -17.90
 20
    30.96
 30
    0.00
 40
    0.2
  0
LINE
  8
LARGEURS
 10
    -19.04
 20
    30.58
 30
    0.00
 11
    -15.76
 21
    31.67
 31
    0.00
  0
TEXT
  8
STATIONS
 10
    -17.90
 20
    30.96
 30
    0.00
 40
    0.4
 72
    2
  1
1.5
  0
LINE
  8
CHEMINEMENTS
 10
    -17.90
 20
    30.96
 30
    0.00
 11
    -20.54
 21
    38.62
 31
    0.00
  0
CIRCLE
  8
POINTS
 10
    -20.54
 20
    38.62
 30
    0.00
 40
    0.2
  0
LINE
  8
LARGEURS
 10
    -22.40
 20
    38.45
 30
    0.00
 11
    -20.54
 21
    38.62
 31
    0.00
  0
TEXT
  8
STATIONS
 10
    -20.54
 20
    38.62
 30
    0.00
 40
    0.4
 72
    2
  1
1.6
  0
LINE
  8
CHEMINEMENTS
 10
    -20.54
 20
    38.62
 30
    0.00
 11
    -19.97
 21
    42.65
 31
    0.00
  0
CIRCLE
  8
POINTS
 10
    -19.97
 20
    42.65
 30
    0.00
 40
    0.2
  0
LINE
  8
LARGEURS
 10
    -19.97
 20
    42.65
 30
    0.00
 11
    -19.97
 21
    42.65
 31
    0.00
  0
TEXT
  8
STATIONS
 10
    -19.97
 20
    42.65
 30
    0.00
 40
    0.4
 72
    2
  1
3.1
  0
LINE
  8
CHEMINEMENTS
 10
    -20.54
 20
    38.62
 30
    0.00
 11
    -27.70
 21
    41.81
 31
    0.00
  0
CIRCLE
  8
POINTS
 10
    -27.70
 20
    41.81
 30
    0.00
 40
    0.2
  0
LINE
  8
LARGEURS
 10
    -27.77
 20
    41.29
 30
    0.00
 11
    -27.58
 21
    42.70
 31
    0.00
  0
TEXT
  8
STATIONS
 10
    -27.70
 20
    41.81
 30
    0.00
 40
    0.4
 72
    2
  1
1.7
  0
LINE
  8
CHEMINEMENTS
 10
    -27.70
 20
    41.81
 30
    0.00
 11
    -32.83
 21
    41.09
 31
    0.00
  0
CIRCLE
  8
POINTS
 10
    -32.83
 20
    41.09
 30
    0.00
 40
    0.2
  0
LINE
  8
LARGEURS
 10
    -32.75
 20
    39.91
 30
    0.00
 11
    -32.85
 21
    41.49
 31
    0.00
  0
TEXT
  8
STATIONS
 10
    -32.83
 20
    41.09
 30
    0.00
 40
    0.4
 72
    2
  1
1.8
  0
LINE
  8
CHEMINEMENTS
 10
    -32.83
 20
    41.09
 30
    0.00
 11
    -44.56
 21
    41.30
 31
    0.00
  0
CIRCLE
  8
POINTS
 10
    -44.56
 20
    41.30
 30
    0.00
 40
    0.2
  0
LINE
  8
LARGEURS
 10
    -44.51
 20
    40.63
 30
    0.00
 11
    -44.65
 21
    42.26
 31
    0.00
  0
TEXT
  8
STATIONS
 10
    -44.56
 20
    41.30
 30
    0.00
 40
    0.4
 72
    2
  1
1.9
  0
LINE
  8
CHEMINEMENTS
 10
    -44.56
 20
    41.30
 30
    0.00
 11
    -56.21
 21
    39.03
 31
    0.00
  0
CIRCLE
  8
POINTS
 10
    -56.21
 20
    39.03
 30
    0.00
 40
    0.2
  0
LINE
  8
LARGEURS
 10
    -56.21
 20
    39.03
 30
    0.00
 11
    -56.04
 21
    40.20
 31
    0.00
  0
TEXT
  8
STATIONS
 10
    -56.21
 20
    39.03
 30
    0.00
 40
    0.4
 72
    2
  1
1.10
  0
LINE
  8
CHEMINEMENTS
 10
    -56.21
 20
    39.03
 30
    0.00
 11
    -59.51
 21
    40.79
 31
    0.00
  0
CIRCLE
  8
POINTS
 10
    -59.51
 20
    40.79
 30
    0.00
 40
    0.2
  0
LINE
  8
LARGEURS
 10
    -60.31
 20
    40.13
 30
    0.00
 11
    -59.51
 21
    40.79
 31
    0.00
  0
TEXT
  8
STATIONS
 10
    -59.51
 20
    40.79
 30
    0.00
 40
    0.4
 72
    2
  1
1.11
  0
LINE
  8
CHEMINEMENTS
 10
    -59.51
 20
    40.79
 30
    0.00
 11
    -61.65
 21
    47.78
 31
    0.00
  0
CIRCLE
  8
POINTS
 10
    -61.65
 20
    47.78
 30
    0.00
 40
    0.2
  0
LINE
  8
LARGEURS
 10
    -61.65
 20
    47.78
 30
    0.00
 11
    -60.81
 21
    48.90
 31
    0.00
  0
TEXT
  8
STATIONS
 10
    -61.65
 20
    47.78
 30
    0.00
 40
    0.4
 72
    2
  1
1.12
  0
LINE
  8
CHEMINEMENTS
 10
    -61.65
 20
    47.78
 30
    0.00
 11
    -66.71
 21
    47.87
 31
    0.00
  0
CIRCLE
  8
POINTS
 10
    -66.71
 20
    47.87
 30
    0.00
 40
    0.2
  0
LINE
  8
LARGEURS
 10
    -66.71
 20
    47.87
 30
    0.00
 11
    -66.29
 21
    48.77
 31
    0.00
  0
TEXT
  8
STATIONS
 10
    -66.71
 20
    47.87
 30
    0.00
 40
    0.4
 72
    2
  1
1.13
  0
LINE
  8
CHEMINEMENTS
 10
    -66.71
 20
    47.87
 30
    0.00
 11
    -69.01
 21
    50.51
 31
    0.00
  0
CIRCLE
  8
POINTS
 10
    -69.01
 20
    50.51
 30
    0.00
 40
    0.2
  0
LINE
  8
LARGEURS
 10
    -69.96
 20
    50.21
 30
    0.00
 11
    -69.01
 21
    50.51
 31
    0.00
  0
TEXT
  8
STATIONS
 10
    -69.01
 20
    50.51
 30
    0.00
 40
    0.4
 72
    2
  1
1.14
  0
LINE
  8
CHEMINEMENTS
 10
    -69.01
 20
    50.51
 30
    0.00
 11
    -68.48
 21
    55.53
 31
    0.00
  0
CIRCLE
  8
POINTS
 10
    -68.48
 20
    55.53
 30
    0.00
 40
    0.2
  0
LINE
  8
LARGEURS
 10
    -69.48
 20
    54.70
 30
    0.00
 11
    -68.48
 21
    55.53
 31
    0.00
  0
TEXT
  8
STATIONS
 10
    -68.48
 20
    55.53
 30
    0.00
 40
    0.4
 72
    2
  1
1.15
  0
LINE
  8
CHEMINEMENTS
 10
    -68.48
 20
    55.53
 30
    0.00
 11
    -72.51
 21
    55.88
 31
    0.00
  0
CIRCLE
  8
POINTS
 10
    -72.51
 20
    55.88
 30
    0.00
 40
    0.2
  0
LINE
  8
LARGEURS
 10
    -72.37
 20
    55.62
 30
    0.00
 11
    -72.84
 21
    56.50
 31
    0.00
  0
TEXT
  8
STATIONS
 10
    -72.51
 20
    55.88
 30
    0.00
 40
    0.4
 72
    2
  1
1.16
  0
LINE
  8
CHEMINEMENTS
 10
    -72.51
 20
    55.88
 30
    0.00
 11
    -73.93
 21
    53.32
 31
    0.00
  0
CIRCLE
  8
POINTS
 10
    -73.93
 20
    53.32
 30
    0.00
 40
    0.2
  0
LINE
  8
LARGEURS
 10
    -73.68
 20
    53.02
 30
    0.00
 11
    -74.58
 21
    54.09
 31
    0.00
  0
TEXT
  8
STATIONS
 10
    -73.93
 20
    53.32
 30
    0.00
 40
    0.4
 72
    2
  1
1.17
  0
LINE
  8
CHEMINEMENTS
 10
    -73.93
 20
    53.32
 30
    0.00
 11
    -76.39
 21
    52.48
 31
    0.00
  0
CIRCLE
  8
POINTS
 10
    -76.39
 20
    52.48
 30
    0.00
 40
    0.2
  0
LINE
  8
LARGEURS
 10
    -76.39
 20
    52.48
 30
    0.00
 11
    -76.85
 21
    53.64
 31
    0.00
  0
TEXT
  8
STATIONS
 10
    -76.39
 20
    52.48
 30
    0.00
 40
    0.4
 72
    2
  1
1.18
  0
LINE
  8
CHEMINEMENTS
 10
    -76.39
 20
    52.48
 30
    0.00
 11
    -80.56
 21
    50.62
 31
    0.00
  0
CIRCLE
  8
POINTS
 10
    -80.56
 20
    50.62
 30
    0.00
 40
    0.2
  0
LINE
  8
LARGEURS
 10
    -81.02
 20
    49.14
 30
    0.00
 11
    -80.47
 21
    50.91
 31
    0.00
  0
TEXT
  8
STATIONS
 10
    -80.56
 20
    50.62
 30
    0.00
 40
    0.4
 72
    2
  1
1.19
  0
LINE
  8
CHEMINEMENTS
 10
    -80.56
 20
    50.62
 30
    0.00
 11
    -84.55
 21
    57.01
 31
    0.00
  0
CIRCLE
  8
POINTS
 10
    -84.55
 20
    57.01
 30
    0.00
 40
    0.2
  0
LINE
  8
LARGEURS
 10
    -85.13
 20
    55.90
 30
    0.00
 11
    -84.46
 21
    57.18
 31
    0.00
  0
TEXT
  8
STATIONS
 10
    -84.55
 20
    57.01
 30
    0.00
 40
    0.4
 72
    2
  1
1.20
  0
LINE
  8
CHEMINEMENTS
 10
    -84.55
 20
    57.01
 30
    0.00
 11
    -90.42
 21
    56.70
 31
    0.00
  0
CIRCLE
  8
POINTS
 10
    -90.42
 20
    56.70
 30
    0.00
 40
    0.2
  0
LINE
  8
LARGEURS
 10
    -89.57
 20
    55.34
 30
    0.00
 11
    -90.42
 21
    56.70
 31
    0.00
  0
TEXT
  8
STATIONS
 10
    -90.42
 20
    56.70
 30
    0.00
 40
    0.4
 72
    2
  1
1.21
  0
LINE
  8
CHEMINEMENTS
 10
    -90.42
 20
    56.70
 30
    0.00
 11
    -93.73
 21
    50.73
 31
    0.00
  0
CIRCLE
  8
POINTS
 10
    -93.73
 20
    50.73
 30
    0.00
 40
    0.2
  0
LINE
  8
LARGEURS
 10
    -93.48
 20
    50.71
 30
    0.00
 11
    -94.73
 21
    50.79
 31
    0.00
  0
TEXT
  8
STATIONS
 10
    -93.73
 20
    50.73
 30
    0.00
 40
    0.4
 72
    2
  1
1.22
  0
LINE
  8
CHEMINEMENTS
 10
    -93.73
 20
    50.73
 30
    0.00
 11
    -89.62
 21
    40.57
 31
    0.00
  0
CIRCLE
  8
POINTS
 10
    -89.62
 20
    40.57
 30
    0.00
 40
    0.2
  0
LINE
  8
LARGEURS
 10
    -88.69
 20
    40.92
 30
    0.00
 11
    -90.47
 21
    40.25
 31
    0.00
  0
TEXT
  8
STATIONS
 10
    -89.62
 20
    40.57
 30
    0.00
 40
    0.4
 72
    2
  1
1.23
  0
LINE
  8
CHEMINEMENTS
 10
    -89.62
 20
    40.57
 30
    0.00
 11
    -88.27
 21
    36.62
 31
    0.00
  0
CIRCLE
  8
POINTS
 10
    -88.27
 20
    36.62
 30
    0.00
 40
    0.2
  0
LINE
  8
LARGEURS
 10
    -86.77
 20
    36.65
 30
    0.00
 11
    -88.52
 21
    36.62
 31
    0.00
  0
TEXT
  8
STATIONS
 10
    -88.27
 20
    36.62
 30
    0.00
 40
    0.4
 72
    2
  1
1.24
  0
LINE
  8
CHEMINEMENTS
 10
    -88.27
 20
    36.62
 30
    0.00
 11
    -89.16
 21
    33.70
 31
    0.00
  0
CIRCLE
  8
POINTS
 10
    -89.16
 20
    33.70
 30
    0.00
 40
    0.2
  0
LINE
  8
LARGEURS
 10
    -88.28
 20
    33.51
 30
    0.00
 11
    -89.16
 21
    33.70
 31
    0.00
  0
TEXT
  8
STATIONS
 10
    -89.16
 20
    33.70
 30
    0.00
 40
    0.4
 72
    2
  1
1.25
  0
LINE
  8
CHEMINEMENTS
 10
    -89.16
 20
    33.70
 30
    0.00
 11
    -90.30
 21
    25.59
 31
    0.00
  0
CIRCLE
  8
POINTS
 10
    -90.30
 20
    25.59
 30
    0.00
 40
    0.2
  0
LINE
  8
LARGEURS
 10
    -90.30
 20
    25.59
 30
    0.00
 11
    -90.30
 21
    25.59
 31
    0.00
  0
TEXT
  8
STATIONS
 10
    -90.30
 20
    25.59
 30
    0.00
 40
    0.4
 72
    2
  1
1.26
  0
TEXT
  8
PROFONDEURS
 10
    -90.30
 20
    25.59
 30
    0.00
 40
    0.6
 72
    0
  1
+5
  0
TEXT
  8
ECHELLE
 10
    -94.73
 20
    -9.94
 30
    0.00
 40
    1.6
 72
    0
  1
0
  0
TEXT
  8
ECHELLE
 10
    -52.39
 20
    -9.94
 30
    0.00
 40
    1.6
 72
    0
  1
40 m
  0
LINE
  8
ECHELLE
 10
    -93.17
 20
    -8.38
 30
    0.00
 11
    -53.17
 21
    -8.38
 31
    0.00
  0
LINE
  8
ECHELLE
 10
    -53.17
 20
    -8.38
 30
    0.00
 11
    -53.17
 21
    -9.94
 31
    0.00
  0
LINE
  8
ECHELLE
 10
    -53.17
 20
    -9.94
 30
    0.00
 11
    -93.17
 21
    -9.94
 31
    0.00
  0
LINE
  8
ECHELLE
 10
    -93.17
 20
    -9.94
 30
    0.00
 11
    -93.17
 21
    -8.38
 31
    0.00
  0
SOLID
  8
ECHELLE
 10
    -93.17
 20
    -8.38
 30
    17950773038345190000000000000000000000000000000000000000000000000000000000000000000000000000000000000000000000000000000000000000000000000000000000000000000000000000000000000000000000000000000000000000000000000000000000000000000000000000000000000000000000000000000.00
 11
    -89.17
 21
    -8.38
 31
    17950773038345190000000000000000000000000000000000000000000000000000000000000000000000000000000000000000000000000000000000000000000000000000000000000000000000000000000000000000000000000000000000000000000000000000000000000000000000000000000000000000000000000000000.00
 12
    -93.17
 22
    -9.16
 32
    17950773038345190000000000000000000000000000000000000000000000000000000000000000000000000000000000000000000000000000000000000000000000000000000000000000000000000000000000000000000000000000000000000000000000000000000000000000000000000000000000000000000000000000000.00
 13
    -89.17
 23
    -9.16
 33
    17950773038345190000000000000000000000000000000000000000000000000000000000000000000000000000000000000000000000000000000000000000000000000000000000000000000000000000000000000000000000000000000000000000000000000000000000000000000000000000000000000000000000000000000.00
  0
SOLID
  8
ECHELLE
 10
    -89.17
 20
    -9.16
 30
    17950773038345190000000000000000000000000000000000000000000000000000000000000000000000000000000000000000000000000000000000000000000000000000000000000000000000000000000000000000000000000000000000000000000000000000000000000000000000000000000000000000000000000000000.00
 11
    -85.17
 21
    -9.16
 31
    17950773038345190000000000000000000000000000000000000000000000000000000000000000000000000000000000000000000000000000000000000000000000000000000000000000000000000000000000000000000000000000000000000000000000000000000000000000000000000000000000000000000000000000000.00
 12
    -89.17
 22
    -9.94
 32
    17950773038345190000000000000000000000000000000000000000000000000000000000000000000000000000000000000000000000000000000000000000000000000000000000000000000000000000000000000000000000000000000000000000000000000000000000000000000000000000000000000000000000000000000.00
 13
    -85.17
 23
    -9.94
 33
    17950773038345190000000000000000000000000000000000000000000000000000000000000000000000000000000000000000000000000000000000000000000000000000000000000000000000000000000000000000000000000000000000000000000000000000000000000000000000000000000000000000000000000000000.00
  0
SOLID
  8
ECHELLE
 10
    -85.17
 20
    -8.38
 30
    17950773038345190000000000000000000000000000000000000000000000000000000000000000000000000000000000000000000000000000000000000000000000000000000000000000000000000000000000000000000000000000000000000000000000000000000000000000000000000000000000000000000000000000000.00
 11
    -81.17
 21
    -8.38
 31
    17950773038345190000000000000000000000000000000000000000000000000000000000000000000000000000000000000000000000000000000000000000000000000000000000000000000000000000000000000000000000000000000000000000000000000000000000000000000000000000000000000000000000000000000.00
 12
    -85.17
 22
    -9.16
 32
    17950773038345190000000000000000000000000000000000000000000000000000000000000000000000000000000000000000000000000000000000000000000000000000000000000000000000000000000000000000000000000000000000000000000000000000000000000000000000000000000000000000000000000000000.00
 13
    -81.17
 23
    -9.16
 33
    17950773038345190000000000000000000000000000000000000000000000000000000000000000000000000000000000000000000000000000000000000000000000000000000000000000000000000000000000000000000000000000000000000000000000000000000000000000000000000000000000000000000000000000000.00
  0
SOLID
  8
ECHELLE
 10
    -81.17
 20
    -9.16
 30
    17950773038345190000000000000000000000000000000000000000000000000000000000000000000000000000000000000000000000000000000000000000000000000000000000000000000000000000000000000000000000000000000000000000000000000000000000000000000000000000000000000000000000000000000.00
 11
    -77.17
 21
    -9.16
 31
    17950773038345190000000000000000000000000000000000000000000000000000000000000000000000000000000000000000000000000000000000000000000000000000000000000000000000000000000000000000000000000000000000000000000000000000000000000000000000000000000000000000000000000000000.00
 12
    -81.17
 22
    -9.94
 32
    17950773038345190000000000000000000000000000000000000000000000000000000000000000000000000000000000000000000000000000000000000000000000000000000000000000000000000000000000000000000000000000000000000000000000000000000000000000000000000000000000000000000000000000000.00
 13
    -77.17
 23
    -9.94
 33
    17950773038345190000000000000000000000000000000000000000000000000000000000000000000000000000000000000000000000000000000000000000000000000000000000000000000000000000000000000000000000000000000000000000000000000000000000000000000000000000000000000000000000000000000.00
  0
SOLID
  8
ECHELLE
 10
    -77.17
 20
    -8.38
 30
    17950773038345190000000000000000000000000000000000000000000000000000000000000000000000000000000000000000000000000000000000000000000000000000000000000000000000000000000000000000000000000000000000000000000000000000000000000000000000000000000000000000000000000000000.00
 11
    -73.17
 21
    -8.38
 31
    17950773038345190000000000000000000000000000000000000000000000000000000000000000000000000000000000000000000000000000000000000000000000000000000000000000000000000000000000000000000000000000000000000000000000000000000000000000000000000000000000000000000000000000000.00
 12
    -77.17
 22
    -9.16
 32
    17950773038345190000000000000000000000000000000000000000000000000000000000000000000000000000000000000000000000000000000000000000000000000000000000000000000000000000000000000000000000000000000000000000000000000000000000000000000000000000000000000000000000000000000.00
 13
    -73.17
 23
    -9.16
 33
    17950773038345190000000000000000000000000000000000000000000000000000000000000000000000000000000000000000000000000000000000000000000000000000000000000000000000000000000000000000000000000000000000000000000000000000000000000000000000000000000000000000000000000000000.00
  0
SOLID
  8
ECHELLE
 10
    -73.17
 20
    -9.16
 30
    17950773038345190000000000000000000000000000000000000000000000000000000000000000000000000000000000000000000000000000000000000000000000000000000000000000000000000000000000000000000000000000000000000000000000000000000000000000000000000000000000000000000000000000000.00
 11
    -53.17
 21
    -9.16
 31
    17950773038345190000000000000000000000000000000000000000000000000000000000000000000000000000000000000000000000000000000000000000000000000000000000000000000000000000000000000000000000000000000000000000000000000000000000000000000000000000000000000000000000000000000.00
 12
    -73.17
 22
    -9.94
 32
    17950773038345190000000000000000000000000000000000000000000000000000000000000000000000000000000000000000000000000000000000000000000000000000000000000000000000000000000000000000000000000000000000000000000000000000000000000000000000000000000000000000000000000000000.00
 13
    -53.17
 23
    -9.94
 33
    17950773038345190000000000000000000000000000000000000000000000000000000000000000000000000000000000000000000000000000000000000000000000000000000000000000000000000000000000000000000000000000000000000000000000000000000000000000000000000000000000000000000000000000000.00
  0
ENDSEC
  0
EOF
